<?xml version="1.0" encoding="UTF-8"?>
<svg xmlns="http://www.w3.org/2000/svg" width="136" height="30" viewBox="0 0 136 30" fill="none">
  <path d="M24.3835 12.4155C27.0388 12.4155 27.6363 13.5689 27.6363 15.0074C27.6363 16.5322 26.9136 17.6247 24.3945 17.6247C21.8915 17.6247 21.168 16.5957 21.168 15.0074C21.168 13.4445 21.9566 12.4155 24.3835 12.4155Z" fill="white"></path>
  <path d="M52.1352 12.4155C54.7906 12.4155 55.388 13.5689 55.388 15.0074C55.388 16.5322 54.6645 17.6247 52.1462 17.6247C49.644 17.6247 48.9197 16.5957 48.9197 15.0074C48.9197 13.4445 49.7083 12.4155 52.1352 12.4155Z" fill="white"></path>
  <path fill-rule="evenodd" clip-rule="evenodd" d="M0.875732 30V0H135.063V30H0.875732ZM64.8292 28.3076H133.371V1.69238H64.8292V28.3076ZM24.3983 20.1783C29.1125 20.1783 31.0943 18.1449 31.0943 14.9691C31.0943 11.7417 28.862 9.82343 24.3983 9.82343C20.0032 9.82343 17.6897 11.9067 17.6897 14.9691C17.6897 18.425 20.1166 20.1783 24.3983 20.1783ZM8.00848 10.0519V20.026H17.523V17.3698H11.4508V10.0519H8.00848ZM41.7427 20.026L41.6539 19.0596C40.5023 19.8814 39.1007 20.2769 37.6895 20.1783C35.5681 20.1783 33.8012 19.5428 32.8103 18.2599C32.1567 17.3234 31.8267 16.1991 31.8702 15.058C31.8331 13.9407 32.1745 12.8437 32.8391 11.9448C33.8418 10.7001 35.6594 9.8742 38.3656 9.8742C41.4787 9.8742 43.3082 10.827 44.0951 12.428C44.264 12.8051 44.3633 13.2095 44.3879 13.622H41.0945C41.0115 13.3713 40.8571 13.1505 40.6503 12.9865C39.9942 12.5515 39.2108 12.3504 38.4265 12.4153C37.9664 12.3595 37.4997 12.402 37.0573 12.54C36.6149 12.6781 36.2068 12.9084 35.86 13.2158C35.4662 13.7548 35.2813 14.4184 35.3396 15.0834C35.2939 15.7177 35.4639 16.349 35.8219 16.8747C36.1718 17.2008 36.5878 17.4477 37.0415 17.599C37.4953 17.7502 37.9762 17.8022 38.4519 17.7514C39.3965 17.8282 40.3343 17.5369 41.0691 16.9382C41.227 16.7409 41.3358 16.5088 41.3865 16.2612H37.8426V14.1178H44.4742V20.026H41.7427ZM52.1483 20.1783C56.8616 20.1783 58.8442 18.1449 58.8442 14.9691C58.8442 11.7417 56.6085 9.82343 52.1483 9.82343C47.7532 9.82343 45.4397 11.9067 45.4397 14.9691C45.4397 18.425 47.8666 20.1783 52.1483 20.1783Z" fill="white"></path>
  <path d="M70.626 19.9882V10.0142H73.0799V19.9882H70.626Z" fill="white"></path>
  <path d="M85.6803 15.8208C85.0584 16.634 83.9879 17.0055 82.4792 17.0148C82.161 17.0148 77.9427 17.0021 77.9427 17.0021V19.9883H75.5413V10.0143H82.48C83.0361 9.95546 83.5987 10.0144 84.1301 10.1873C84.6623 10.3603 85.1514 10.6432 85.5669 11.0179C86.1153 11.7322 86.3818 12.6229 86.3167 13.5209C86.3725 14.3376 86.1483 15.149 85.6803 15.8208ZM83.7112 12.5689C83.4574 12.1881 82.9099 11.9766 81.9833 11.9766H77.9301V15.0127H81.9571C82.948 15.0127 83.4701 14.8096 83.7112 14.4153C83.8542 14.1375 83.916 13.8247 83.8889 13.5133C83.9101 13.1885 83.8492 12.8636 83.7112 12.5689Z" fill="white"></path>
  <path d="M93.3986 20.14C88.8748 20.14 87.4905 18.4476 87.4905 16.773H90.057C90.057 17.5989 91.1875 18.2217 93.5128 18.2217C95.8246 18.2217 96.4347 17.8147 96.4347 17.1538C96.4347 16.4168 95.9778 16.1883 93.8301 15.9471C93.407 15.9091 92.2554 15.7694 91.823 15.706C88.7767 15.3624 87.6039 14.4604 87.6039 12.8467C87.6039 11.1442 89.3199 9.86133 93.0423 9.86133C97.0829 9.86133 98.6331 11.4496 98.6331 13.1014H96.0945C96.0945 12.2628 95.1417 11.7796 92.8926 11.7796C90.5799 11.7796 90.0849 12.097 90.0849 12.7198C90.0849 13.3679 90.5926 13.571 93.0466 13.863C93.6059 13.94 94.8506 14.0796 95.1934 14.1168C97.7861 14.3834 98.9547 15.3235 98.9547 16.9879C98.9504 18.9706 97.1717 20.14 93.3986 20.14Z" fill="white"></path>
  <path d="M106.18 20.1278C102.865 20.1278 100.704 18.8188 100.704 16.0661V10.0142H103.13V16.1C103.13 17.3583 104.16 18.196 106.282 18.196C108.2 18.196 109.344 17.409 109.344 16.1V10.0142H111.745V16.292C111.745 18.7942 109.737 20.1278 106.18 20.1278Z" fill="white"></path>
  <path d="M124.894 19.9882V13.3304L121.781 19.9882H119.418L116.394 13.3304V19.9882H114.109V10.0142H117.204L120.635 17.6121L124.142 10.0142H127.188V19.9882H124.894Z" fill="white"></path>
</svg>
